<?xml version="1.0" standalone="no"?>
<!DOCTYPE svg PUBLIC "-//W3C//DTD SVG 20010904//EN"
 "http://www.w3.org/TR/2001/REC-SVG-20010904/DTD/svg10.dtd">
<svg version="1.0" xmlns="http://www.w3.org/2000/svg"
 width="200.000000pt" height="200.000000pt" viewBox="0 0 200.000000 200.000000"
 preserveAspectRatio="xMidYMid meet">
<metadata>
Created by potrace 1.11, written by Peter Selinger 2001-2013
</metadata>
<g transform="translate(0.000000,200.000000) scale(0.100000,-0.100000)"
fill="#000000" stroke="none">
<path d="M957 1649 c-11 -14 -13 -28 -7 -43 6 -17 -5 -48 -45 -133 -45 -96
-56 -111 -80 -116 -40 -7 -305 109 -305 134 0 22 -39 67 -60 70 -40 4 -61 -3
-76 -26 -25 -38 -21 -75 10 -102 31 -26 62 -29 91 -9 18 12 34 7 147 -43 l127
-56 -1 -35 c0 -19 1 -39 3 -45 2 -5 -29 -43 -69 -83 -65 -65 -74 -71 -94 -61
-34 18 -106 5 -138 -26 l-28 -27 -78 37 c-44 21 -89 41 -101 46 -13 5 -23 15
-23 24 0 23 -37 55 -65 55 -62 0 -83 -76 -32 -113 22 -17 30 -18 56 -8 27 12
37 9 108 -23 122 -56 126 -58 129 -89 1 -16 10 -40 19 -53 15 -23 13 -27 -37
-104 -29 -44 -60 -80 -69 -80 -40 0 -53 -59 -18 -84 34 -24 69 -3 69 42 0 13
23 57 51 98 50 75 51 76 89 70 25 -3 49 1 73 13 l36 19 59 -43 c51 -37 59 -48
60 -76 1 -23 9 -41 27 -56 38 -34 79 -30 120 11 22 23 54 40 92 51 32 9 92 27
133 40 l75 23 24 -24 c13 -13 31 -25 40 -25 30 -3 48 -2 72 4 19 5 36 -5 83
-49 32 -31 61 -68 65 -82 9 -32 53 -52 78 -36 31 19 37 39 22 70 -12 24 -21
29 -52 30 -31 0 -46 9 -91 52 -52 50 -53 53 -49 97 6 51 -13 90 -53 105 -26
10 -25 4 -25 175 0 149 0 153 17 159 10 4 61 -20 135 -64 l118 -70 96 -135
c53 -75 98 -146 100 -157 8 -41 48 -50 66 -16 10 19 8 25 -18 47 -16 15 -69
82 -118 150 l-88 125 34 30 c110 99 142 121 171 117 35 -3 68 22 68 53 0 35
-28 66 -60 66 -42 0 -64 -25 -62 -70 1 -8 -40 -49 -90 -91 l-90 -76 -114 66
c-63 36 -114 71 -114 78 -1 48 -52 89 -93 74 -19 -7 -37 3 -121 70 -54 44
-106 94 -115 112 -20 41 -62 49 -84 16z m172 -159 c79 -63 101 -86 101 -105 0
-13 12 -37 28 -52 l27 -29 -1 -148 c-1 -160 -9 -183 -49 -147 -11 9 -69 60
-130 112 -60 51 -123 106 -140 121 -16 15 -33 28 -37 28 -5 0 -8 8 -8 18 0 10
-6 26 -14 37 -12 18 -8 32 36 133 38 83 55 112 69 112 10 0 63 -36 118 -80z
m-193 -277 c10 -10 53 -47 94 -83 41 -36 92 -80 112 -99 21 -19 46 -40 57 -47
18 -13 18 -16 3 -58 -13 -35 -23 -47 -44 -51 -15 -4 -73 -21 -129 -39 l-101
-33 -27 29 c-24 27 -30 30 -76 25 -46 -4 -55 -1 -104 34 -54 39 -55 41 -52 84
1 24 -3 53 -9 65 -11 20 -5 29 63 96 71 69 77 73 106 64 24 -7 35 -5 53 10 28
24 30 24 54 3z"/>
<path d="M1162 480 c1 -79 6 -134 12 -139 18 -15 69 -17 73 -3 3 6 -2 12 -11
12 -18 0 -18 2 -18 153 l0 107 -29 0 -29 0 2 -130z"/>
<path d="M800 461 l0 -131 24 0 c28 0 33 11 31 63 -1 37 -1 37 39 38 128 2
191 31 184 85 -6 51 -44 67 -168 72 l-110 4 0 -131z m214 77 c32 -46 -13 -78
-109 -78 l-51 0 0 50 1 51 73 -2 c59 -2 75 -6 86 -21z"/>
<path d="M535 517 c-47 -15 -85 -56 -85 -91 0 -17 6 -38 13 -47 32 -42 125
-62 205 -44 41 9 37 32 -4 25 -59 -9 -114 -3 -134 15 -40 36 -26 43 81 43 55
0 103 2 106 5 10 11 -13 61 -38 79 -28 21 -102 29 -144 15z m115 -37 c11 -11
20 -24 20 -28 0 -5 -36 -9 -80 -9 -69 0 -81 2 -78 16 8 40 104 55 138 21z"/>
<path d="M1372 518 c-26 -6 -42 -14 -39 -21 2 -7 13 -11 23 -9 84 11 106 12
124 2 27 -14 26 -40 -2 -40 -126 -2 -210 -62 -146 -104 34 -22 67 -25 123 -11
29 8 51 9 53 4 2 -5 14 -9 28 -9 23 0 23 3 22 68 0 37 -5 75 -10 84 -20 39
-91 54 -176 36z m134 -110 c-1 -30 -23 -45 -73 -53 -31 -4 -45 -2 -58 11 -14
15 -15 19 -2 31 16 16 65 30 108 32 20 1 25 -4 25 -21z"/>
</g>
</svg>
